<?xml version="1.0" encoding="UTF-8" standalone="no"?>
<!-- Generator: Adobe Illustrator 11.0, SVG Export Plug-In  -->
<!-- hand edited from http://commons.wikimedia.org/wiki/Image:1_9_2_44.svg -->
<svg
   xmlns:cc="http://web.resource.org/cc/"
   xmlns:rdf="http://www.w3.org/1999/02/22-rdf-syntax-ns#"
   xmlns:svg="http://www.w3.org/2000/svg"
   xmlns="http://www.w3.org/2000/svg"
   width="400"
   height="400"
   viewBox="140 90 270 270"
   xml:space="preserve"
   id="svg2"
   version="1.0"><metadata
   id="metadata19"><rdf:RDF><cc:Work
       rdf:about=""><cc:license
         rdf:resource="http://creativecommons.org/licenses/by-sa/2.5/" /></cc:Work><cc:License
       rdf:about="http://creativecommons.org/licenses/by-sa/2.5/"><cc:permits
         rdf:resource="http://web.resource.org/cc/Reproduction" /><cc:permits
         rdf:resource="http://web.resource.org/cc/Distribution" /><cc:requires
         rdf:resource="http://web.resource.org/cc/Notice" /><cc:requires
         rdf:resource="http://web.resource.org/cc/Attribution" /><cc:permits
         rdf:resource="http://web.resource.org/cc/DerivativeWorks" /><cc:requires
         rdf:resource="http://web.resource.org/cc/ShareAlike" /></cc:License></rdf:RDF></metadata>
	<g
   id="g6"
   transform="matrix(1.273345,0,0,1.22469,-50.28353,-32.17015)">
		<path
   d="M 350.604,219.852 C 354.708,214.884 357.66,208.98 359.532,202.572 C 360.252,199.692 360.756,196.74 361.26,193.644 C 361.26,192.564 361.476,191.556 361.476,190.332 C 361.476,188.964 361.26,187.38 361.116,186.012 C 360.612,183.204 359.892,180.612 358.884,178.02 C 358.164,176.508 357.3,174.924 356.436,173.412 C 356.436,174.924 356.436,176.148 356.652,177.372 C 356.436,179.604 355.932,182.34 355.428,185.148 C 354.708,187.74 353.7,190.188 352.476,192.564 C 351.468,194.292 350.244,196.02 349.02,197.388 C 347.076,199.476 345.06,201.42 342.756,203.148 C 340.74,204.877 338.436,206.388 336.204,207.756 C 333.828,209.34 331.02,210.708 328.284,211.788 C 326.196,212.796 323.964,213.66 321.516,214.164 C 318.78,215.028 315.828,215.532 312.876,215.892 C 310.788,216.108 308.7,216.252 306.684,216.108 C 305.964,216.108 305.604,215.748 305.46,215.244 C 305.46,214.668 305.46,214.38 305.82,214.02 C 306.324,213.3 306.828,212.652 307.188,212.076 L 318.564,198.468 L 276.588,201.924 C 273.276,202.284 270.036,202.284 266.724,201.564 C 263.988,201.204 261.396,200.556 258.804,199.332 C 255.852,197.964 252.396,196.236 249.084,194.508 L 236.196,229.212 C 232.236,230.292 228.06,231.444 224.1,232.668 C 224.964,232.308 220.644,233.892 216.18,235.476 C 211.5,237.204 208.332,238.572 205.236,240.084 C 199.188,243.036 193.356,246.348 187.596,250.164 C 184.716,252.036 181.548,254.268 178.308,256.572 C 176.364,258.084 174.276,259.812 172.044,261.756 L 216.828,100.98 L 212.868,99.756 L 165.636,267.948 C 162.396,271.044 159.3,274.716 156.852,278.46 C 158.076,278.82 159.3,279.18 160.452,279.54 C 160.812,279.684 161.316,279.9 161.892,280.044 C 164.772,280.908 166.86,281.412 168.804,282.132 C 167.94,281.772 168.444,281.916 168.804,282.132 C 170.172,282.636 171.54,283.14 172.908,283.644 C 176.076,285.084 179.172,286.236 182.124,287.676 C 183.276,288.18 184.5,288.684 185.724,289.404 C 186.228,289.692 186.948,290.052 187.452,290.412 C 187.452,290.628 187.596,290.628 187.596,290.772 C 187.596,290.772 187.812,290.916 187.812,291.132 C 187.956,291.276 187.956,291.492 187.956,291.492 C 187.956,291.996 187.596,292.356 187.308,292.5 C 185.22,293.004 182.988,293.364 180.9,293.508 C 177.588,294.084 174.492,294.732 171.396,295.452 C 168.228,296.1 165.132,297.18 162.18,298.188 C 160.164,298.692 157.86,299.556 155.844,300.276 C 153.9,300.996 152.028,301.644 150.3,302.148 C 149.796,302.364 149.436,302.508 149.436,302.868 C 149.436,303.228 149.796,303.372 149.94,303.372 C 150.084,303.372 150.084,303.372 150.084,303.372 L 196.452,306.684 C 196.956,306.684 197.46,306.828 197.964,306.828 C 198.828,306.828 199.692,306.684 200.556,306.684 C 203.508,306.324 206.316,305.604 208.908,304.452 C 212.364,302.868 215.316,300.78 218.052,298.404 C 220.5,295.956 222.732,293.508 224.604,290.772 C 226.332,288.18 227.556,285.372 228.564,282.492 C 229.644,279.9 230.292,276.948 230.652,274.14 C 231.012,271.908 231.156,269.532 231.156,267.228 C 242.676,266.22 253.908,264.852 265.14,263.268 C 282.132,260.316 298.908,254.484 314.604,246.132 C 318.924,243.9 323.244,241.668 327.42,239.22 C 330.156,237.708 333.252,235.764 336.204,233.532 C 338.796,231.444 341.244,229.428 343.476,227.484 C 345.924,225.252 348.3,222.66 350.604,219.852 z "
   id="path8" />
		<path
   d="M 190.476,267.012 C 190.476,263.7 187.812,260.964 184.572,260.964 C 181.332,260.964 178.668,263.7 178.668,267.012 C 178.668,270.396 181.332,273.06 184.572,273.06 C 187.812,273.06 190.476,270.396 190.476,267.012 z "
   id="path10"
   style="fill:white" />
		<path
   d="M 313.596,285.732 C 296.244,295.956 277.092,302.724 257.004,305.676 L 243.036,306.828 L 228.78,307.692 L 213.732,307.548 C 217.692,305.1 221.292,302.22 224.46,298.908 L 227.556,295.308 C 230.148,291.996 232.236,288.54 233.604,284.724 C 234.252,282.276 234.828,280.044 235.332,277.668 L 236.196,272.124 L 251.172,270.54 L 262.908,269.028 L 270.828,267.804 C 275.364,266.94 279.828,265.716 284.364,264.348 L 298.836,259.164 L 310.068,254.124 L 321.516,248.436 L 332.244,242.532 L 340.668,236.844 L 351.396,226.836 L 359.388,215.892 L 358.884,220.068 C 356.796,233.532 351.756,246.492 344.34,258.084 C 339.3,266.076 332.892,272.772 325.476,277.956 L 321.516,280.764 L 313.596,285.732 z "
   id="path12" />
		<path
   d="M 341.82,154.692 C 338.507,152.316 335.052,150.228 331.236,148.5 L 269.172,122.724 L 268.164,122.22 C 267.948,122.22 267.804,122.076 267.588,122.076 C 267.444,122.076 267.084,122.22 266.94,122.436 C 266.58,122.724 266.58,123.084 266.58,123.444 C 266.58,123.804 266.58,124.164 266.94,124.308 L 284.22,146.772 L 288.036,151.956 C 288.9,153.684 289.26,155.412 289.404,157.14 C 289.404,157.356 289.404,157.5 289.404,157.644 C 289.404,159.228 289.044,160.956 288.54,162.54 L 286.668,166.5 L 284.94,169.092 C 288.684,168.372 292.14,167.724 295.812,167.148 C 300.492,166.284 305.46,165.636 310.644,165.42 C 314.964,165.276 318.996,165.132 323.1,165.132 C 326.196,165.276 329.652,165.42 333.108,165.78 C 335.412,166.14 337.428,166.5 339.516,167.004 C 341.1,167.508 342.684,168.372 344.052,169.236 C 346.284,170.82 348.012,172.908 349.02,175.284 C 349.884,177.228 350.46,179.46 350.604,181.548 C 351.324,179.604 351.612,177.732 351.612,175.644 C 351.612,175.284 351.612,175.14 351.612,174.78 C 351.468,172.188 351.108,169.74 350.46,167.148 C 349.38,164.412 348.012,161.82 346.428,159.588 C 345.06,157.86 343.548,156.276 341.964,154.908 C 341.964,154.692 341.82,154.692 341.82,154.692 z "
   id="path14" />
		<path
   d="M 296.316,300.564 C 299.556,299.196 302.652,297.684 305.604,295.956 C 305.964,296.1 306.468,296.1 306.828,296.1 C 308.916,296.1 311.004,295.956 313.02,295.596 C 319.068,295.092 325.116,294.228 331.02,293.148 C 324.612,297.468 318.564,302.148 313.02,307.188 C 308.196,311.292 303.876,315.828 299.556,320.22 C 298.332,320.22 297.324,319.86 296.46,319.572 C 292.644,317.844 289.188,315.972 285.732,313.884 C 282.42,312.012 279.54,309.78 277.092,307.188 C 278.964,306.468 280.908,305.82 282.78,305.244 C 287.46,304.092 291.924,302.508 296.316,300.564 z "
   id="path16" />
	</g>
</svg>
