<?xml version="1.0" encoding="UTF-8" standalone="no"?>
<svg width="174px" height="158px" viewBox="0 0 174 158" version="1.1" xmlns="http://www.w3.org/2000/svg" xmlns:xlink="http://www.w3.org/1999/xlink" xmlns:sketch="http://www.bohemiancoding.com/sketch/ns">
    <!-- Generator: Sketch 3.4.2 (15857) - http://www.bohemiancoding.com/sketch -->
    <title>Fishing</title>
    <desc>Created with Sketch.</desc>
    <defs></defs>
    <g id="Welcome" stroke="none" stroke-width="1" fill="none" fill-rule="evenodd" sketch:type="MSPage">
        <g id="Desktop" sketch:type="MSArtboardGroup" transform="translate(-546.000000, -158.000000)">
            <g id="Fishing" sketch:type="MSLayerGroup" transform="translate(546.000000, 158.000000)">
                <g id="svg2" sketch:type="MSShapeGroup">
                    <g id="g6" transform="translate(0.284589, 0.043078)">
                        <path d="M164.219822,85.9742105 C167.562802,82.4399713 169.967401,78.239861 171.492269,73.6812046 C172.078757,71.6323702 172.489299,69.5323151 172.89984,67.3298182 C172.89984,66.5615053 173.075786,65.8444133 173.075786,64.9736587 C173.075786,64.0004624 172.89984,62.8736035 172.782542,61.9004072 C172.372001,59.9027937 171.785513,58.0588428 170.964431,56.2148919 C170.377943,55.1392539 169.674158,54.012395 168.970372,52.936757 C168.970372,54.012395 168.970372,54.8831496 169.146319,55.7539042 C168.970372,57.3417508 168.559831,59.2881434 168.149289,61.2857569 C167.562802,63.1297078 166.741719,64.871217 165.74469,66.5615053 C164.923607,67.7908059 163.926578,69.0201065 162.929549,69.9933028 C161.346032,71.4787077 159.703866,72.8616708 157.827105,74.0909714 C156.18494,75.3209834 154.308179,76.3959101 152.490067,77.3691064 C150.554658,78.4959652 148.267356,79.4691616 146.038702,80.2374744 C144.337888,80.9545664 142.519776,81.5692167 140.525718,81.9277627 C138.297064,82.542413 135.892464,82.9009591 133.487865,83.1570633 C131.78705,83.3107259 130.086236,83.4131676 128.44407,83.3107259 C127.857583,83.3107259 127.564339,83.0546216 127.447041,82.6960756 C127.447041,82.2863088 127.447041,82.0814253 127.740285,81.825321 C128.150826,81.3131124 128.561368,80.8521247 128.854612,80.4423579 L138.121118,70.7616157 L103.928883,73.2202168 C101.23104,73.4763211 98.5918451,73.4763211 95.8940015,72.9641126 C93.6653482,72.7080083 91.5539924,72.2470205 89.4426366,71.376266 C87.0380369,70.4030696 84.2228958,69.173769 81.5250522,67.9444684 L71.0269219,92.6329221 C67.8012394,93.401235 64.3996106,94.2207687 61.1739281,95.0915233 C61.8777134,94.835419 58.358787,95.9622779 54.7225631,97.0891368 C50.9103929,98.3184374 48.3298469,99.2916337 45.8079497,100.367272 C40.8814528,102.467327 36.1309022,104.823486 31.4390004,107.538192 C29.0930495,108.869934 26.5125035,110.457781 23.8733087,112.096848 C22.2897919,113.172486 20.5889775,114.401787 18.7708655,115.78475 L55.2504021,1.4085736 L52.0247196,0.537819011 L13.5511247,120.189744 C10.91193,122.392241 8.39003275,125.004505 6.39597448,127.667989 C7.39300362,127.924093 8.39003275,128.180198 9.32841312,128.436302 C9.62165698,128.538744 10.0321984,128.692406 10.5013886,128.794848 C12.8473395,129.409498 14.5481539,129.768044 16.1316707,130.280253 C15.4278855,130.024149 15.8384269,130.12659 16.1316707,130.280253 C17.2459974,130.638799 18.3603241,130.997345 19.4746508,131.355891 C22.0551968,132.380308 24.577094,133.199842 26.9816937,134.224259 C27.920074,134.582805 28.9171032,134.941351 29.9141323,135.45356 C30.3246737,135.658443 30.9111615,135.914547 31.3217029,136.170652 C31.3217029,136.324314 31.4390004,136.324314 31.4390004,136.426756 C31.4390004,136.426756 31.6149467,136.529198 31.6149467,136.68286 C31.7322443,136.785302 31.7322443,136.938964 31.7322443,136.938964 C31.7322443,137.29751 31.4390004,137.553615 31.2044053,137.656057 C29.5035909,138.014603 27.685479,138.270707 25.9846645,138.373149 C23.286821,138.782915 20.7649238,139.243903 18.2430266,139.756112 C15.6624806,140.217099 13.1405833,140.985412 10.7359837,141.702504 C9.09381803,142.06105 7.2170573,142.675701 5.57489167,143.187909 C3.99137481,143.700118 2.46650672,144.161106 1.05893617,144.519652 C0.648394764,144.673314 0.355150901,144.775756 0.355150901,145.03186 C0.355150901,145.287964 0.648394764,145.390406 0.76569231,145.390406 L0.882989855,145.390406 L38.6527994,147.746566 C39.0633408,147.746566 39.4738823,147.849007 39.8844237,147.849007 C40.5882089,147.849007 41.2919942,147.746566 41.9957795,147.746566 C44.4003792,147.490461 46.6876813,146.978253 48.7990371,146.158719 C51.6141782,145.03186 54.0187779,143.546455 56.2474312,141.856167 C58.2414895,140.114658 60.0596015,138.373149 61.5844695,136.426756 C62.9920401,134.582805 63.9890692,132.585192 64.810152,130.536357 C65.6898836,128.692406 66.2177226,126.592351 66.5109664,124.594738 C66.8042103,123.006891 66.9215079,121.316603 66.9215079,119.677535 C76.3053115,118.960443 85.45452,117.987247 94.6037285,116.860388 C108.444839,114.760333 122.110003,110.611443 134.895435,104.669824 C138.414362,103.081977 141.933288,101.494131 145.334917,99.7526214 C147.56357,98.6769834 150.085467,97.2940202 152.490067,95.7061736 C154.601423,94.2207687 156.595481,92.7865847 158.413593,91.4036215 C160.407651,89.8157749 162.343061,87.971824 164.219822,85.9742105 L164.219822,85.9742105 Z" id="path8" fill="#000000"></path>
                        <path d="M33.7849513,119.523873 C33.7849513,117.167713 31.6149467,115.221321 28.975752,115.221321 C26.3365572,115.221321 24.1665526,117.167713 24.1665526,119.523873 C24.1665526,121.931253 26.3365572,123.826425 28.975752,123.826425 C31.6149467,123.826425 33.7849513,121.931253 33.7849513,119.523873 L33.7849513,119.523873 Z" id="path10" fill="#FFFFFF"></path>
                        <path d="M134.074353,132.841296 C119.939998,140.114658 104.339425,144.929418 87.9764172,147.029474 L76.5985553,147.849007 L64.9860984,148.463658 L52.7285049,148.361216 C55.9541874,146.619707 58.886626,144.570872 61.467172,142.214713 L63.9890692,139.65367 C66.100425,137.29751 67.8012394,134.838909 68.9155661,132.124204 C69.4434051,130.382695 69.9125953,128.794848 70.3231367,127.10456 L71.0269219,123.160554 L83.2258667,122.033695 L92.7856166,120.958057 L99.2369816,120.087302 C102.931854,119.472652 106.568078,118.601897 110.262951,117.628701 L122.051354,113.940799 L131.200563,110.355339 L140.525718,106.308891 L149.264385,102.108781 L156.126291,98.0623331 L164.864958,90.9426338 L171.374972,83.1570633 L170.964431,86.1278731 C169.263616,95.7061736 165.158202,104.925928 159.117378,113.172486 C155.011964,118.858002 149.792224,123.621541 143.7514,127.309443 L140.525718,129.307057 L134.074353,132.841296 L134.074353,132.841296 Z" id="path12" fill="#000000"></path>
                        <path d="M157.064671,39.6193338 C154.366013,37.9290455 151.551687,36.4436406 148.443302,35.21434 L97.8880598,16.8772728 L97.066977,16.5187268 C96.8910307,16.5187268 96.7737331,16.4162851 96.5977868,16.4162851 C96.4804893,16.4162851 96.1872454,16.5187268 96.0699479,16.6723894 C95.776704,16.8772728 95.776704,17.1333771 95.776704,17.3894814 C95.776704,17.6455857 95.776704,17.90169 96.0699479,18.0041317 L110.145653,33.9850394 L113.254038,37.6729412 C113.957824,38.9022418 114.251067,40.1315424 114.368365,41.360843 L114.368365,41.719389 C114.368365,42.8462479 114.075121,44.0755485 113.66458,45.2024074 L112.139712,48.0195546 L110.732141,49.8635055 C113.781877,49.3512969 116.597018,48.8903092 119.588106,48.4805423 C123.400276,47.865892 127.447041,47.4049043 131.669753,47.2512417 C135.188679,47.1488 138.47301,47.0463583 141.815991,47.0463583 C144.337888,47.1488 147.153029,47.2512417 149.96817,47.507346 C151.844931,47.7634503 153.487096,48.0195546 155.187911,48.3781006 C156.478184,48.7366466 157.768457,49.3512969 158.882783,49.9659472 C160.700895,51.0928061 162.108466,52.578211 162.929549,54.2684993 C163.633334,55.6514625 164.102524,57.2393091 164.219822,58.724714 C164.806309,57.3417508 165.040904,56.0100085 165.040904,54.5246036 L165.040904,53.9099533 C164.923607,52.0660024 164.630363,50.3244932 164.102524,48.4805423 C163.222793,46.5341497 162.108466,44.6901988 160.818193,43.1023522 C159.703866,41.8730516 158.472242,40.7461927 157.181969,39.7729964 C157.181969,39.6193338 157.064671,39.6193338 157.064671,39.6193338 L157.064671,39.6193338 Z" id="path14" fill="#000000"></path>
                        <path d="M119.998647,143.392793 C122.637842,142.419596 125.159739,141.343958 127.564339,140.114658 C127.857583,140.217099 128.268124,140.217099 128.561368,140.217099 C130.262182,140.217099 131.962997,140.114658 133.605162,139.858553 C138.531659,139.500007 143.458156,138.885357 148.267356,138.117044 C143.047615,141.190296 138.121118,144.519652 133.605162,148.105112 C129.675695,151.024701 126.156768,154.251615 122.637842,157.376087 C121.640813,157.376087 120.81973,157.119983 120.115945,156.915099 C117.00756,155.685799 114.192419,154.354056 111.377278,152.868651 C108.679434,151.536909 106.333483,149.949062 104.339425,148.105112 C105.864293,147.592903 107.44781,147.131915 108.972678,146.722148 C112.784848,145.902615 116.421072,144.775756 119.998647,143.392793 L119.998647,143.392793 Z" id="path16" fill="#000000"></path>
                    </g>
                </g>
            </g>
        </g>
    </g>
</svg>